<svg xmlns="http://www.w3.org/2000/svg" xmlns:xlink="http://www.w3.org/1999/xlink" width="256" height="256" viewBox="0 0 256 256"><defs><linearGradient id="a" x1="0.554" y1="0.378" x2="1.074" y2="0.954" gradientUnits="objectBoundingBox"><stop offset="0" stop-color="#0071b9"/><stop offset="1" stop-color="aqua"/></linearGradient><clipPath id="c"><rect width="256" height="256"/></clipPath></defs><g id="b" clip-path="url(#c)"><rect width="256" height="256" fill="#fff"/><g transform="translate(0 -0.292)"><circle cx="125" cy="125" r="125" transform="translate(3 3.292)" fill="url(#a)"/></g><text transform="translate(128 178.022)" fill="#fff" font-size="40" font-family="Barlow-ExtraBold, Barlow" font-weight="800"><tspan x="-93.18" y="0">TRACKING</tspan></text><g transform="translate(-72.272 81.861)" opacity="0.6"><path d="M61.252,11.874a2.8,2.8,0,1,1,4.782,1.98,2.8,2.8,0,0,1-4.782-1.98m.678,9.779a2.124,2.124,0,1,1,4.248,0v29a2.124,2.124,0,1,1-4.248,0Z" transform="translate(41.02 6.072)" fill="#fff"/><path d="M68.049,17.455a2.121,2.121,0,1,1,4.241,0v.888a12.663,12.663,0,0,1,3.622-2.187,11.664,11.664,0,0,1,4.383-.821,12.14,12.14,0,0,1,4.784.957,12.167,12.167,0,0,1,6.567,6.567,12.133,12.133,0,0,1,.957,4.787V46.456a2.121,2.121,0,1,1-4.241,0V27.646a7.6,7.6,0,0,0-.651-3.111,8.334,8.334,0,0,0-1.743-2.565,7.838,7.838,0,0,0-2.565-1.71,7.945,7.945,0,0,0-3.107-.618,7.72,7.72,0,0,0-3.081.618,8.658,8.658,0,0,0-2.53,1.638,7.278,7.278,0,0,0-1.71,2.429A8.183,8.183,0,0,0,72.29,27.3V46.456a2.121,2.121,0,1,1-4.241,0Z" transform="translate(45.571 10.27)" fill="#fff"/><path d="M89.525,18.093a8.949,8.949,0,0,1,2.6-6.36,9.3,9.3,0,0,1,2.87-1.949,8.759,8.759,0,0,1,3.561-.718,2.1,2.1,0,0,1,2.117,2.119,2.1,2.1,0,0,1-2.117,2.121,4.789,4.789,0,0,0-4.789,4.787v1.438h4.647a2.121,2.121,0,1,1,0,4.241H93.766v26.88a2.121,2.121,0,1,1-4.241,0V23.772H86.716a2.121,2.121,0,1,1,0-4.241h2.808Z" transform="translate(56.655 6.072)" fill="#fff"/><path d="M111.379,15.416a15.169,15.169,0,0,1,6.263,1.332,17.438,17.438,0,0,1,5.231,3.593,17.2,17.2,0,0,1,3.588,5.265,16.066,16.066,0,0,1,.033,12.758,17.242,17.242,0,0,1-3.52,5.231,16.3,16.3,0,0,1-11.731,4.857A16.506,16.506,0,0,1,99.616,43.8a15.947,15.947,0,0,1-3.556-5.2,16.34,16.34,0,0,1-1.3-6.564,16.086,16.086,0,0,1,1.269-6.395,16.308,16.308,0,0,1,3.488-5.2,16.939,16.939,0,0,1,5.265-3.555,18.03,18.03,0,0,1,6.6-1.473m-.135,4.308a11.9,11.9,0,0,0-4.755.96,12.28,12.28,0,0,0-6.527,6.564A12.049,12.049,0,0,0,99,32.038a11.784,11.784,0,0,0,.963,4.752,12.375,12.375,0,0,0,6.527,6.533,11.9,11.9,0,0,0,4.755.957,12.286,12.286,0,0,0,8.717-3.591,12.448,12.448,0,0,0,2.64-3.9,11.892,11.892,0,0,0,.957-4.752,12.161,12.161,0,0,0-.957-4.79,12.38,12.38,0,0,0-2.64-3.93,12.315,12.315,0,0,0-8.717-3.593" transform="translate(63.457 10.324)" fill="#fff"/><path d="M133.579,15.457a13.973,13.973,0,0,1,4.926.821,18.406,18.406,0,0,1,3.765,1.882,11.3,11.3,0,0,1,2.429,2.12,3.119,3.119,0,0,1,.855,1.608,1.7,1.7,0,0,1-.618,1.3,2.025,2.025,0,0,1-1.371.546,2.064,2.064,0,0,1-1.506-.613,14.126,14.126,0,0,0-3.894-2.429,11.986,11.986,0,0,0-4.722-.923,11.861,11.861,0,0,0-4.75.957,12.38,12.38,0,0,0-3.9,2.633,12.325,12.325,0,0,0-3.59,8.721,11.875,11.875,0,0,0,.957,4.752,12.352,12.352,0,0,0,6.533,6.535,11.86,11.86,0,0,0,4.75.955,12.045,12.045,0,0,0,4.722-.922,12.788,12.788,0,0,0,3.894-2.565,2.062,2.062,0,0,1,1.506-.618,2.153,2.153,0,0,1,1.473.584,1.882,1.882,0,0,1,.651,1.468,3.24,3.24,0,0,1-.786,1.608,9.016,9.016,0,0,1-2.361,2.087,16.423,16.423,0,0,1-3.867,1.777,16.717,16.717,0,0,1-5.231.753,16.545,16.545,0,0,1-11.629-4.65,16.094,16.094,0,0,1-3.555-5.2,16.534,16.534,0,0,1,3.453-18.161,17.048,17.048,0,0,1,5.271-3.555,18.007,18.007,0,0,1,6.6-1.473" transform="translate(78.329 10.352)" fill="#fff"/><path d="M153.2,15.416a15.169,15.169,0,0,1,6.263,1.332,17.431,17.431,0,0,1,5.229,3.593,17.173,17.173,0,0,1,3.59,5.265,16.085,16.085,0,0,1,.033,12.758A17.217,17.217,0,0,1,164.8,43.6a16.293,16.293,0,0,1-11.73,4.857,16.514,16.514,0,0,1-11.629-4.65,15.969,15.969,0,0,1-3.555-5.2,16.34,16.34,0,0,1-1.3-6.564,16.086,16.086,0,0,1,1.269-6.395,16.331,16.331,0,0,1,3.486-5.2,16.979,16.979,0,0,1,5.265-3.555,18.039,18.039,0,0,1,6.6-1.473m-.135,4.308a11.919,11.919,0,0,0-4.757.96,12.284,12.284,0,0,0-6.525,6.564,12.049,12.049,0,0,0-.963,4.79,11.783,11.783,0,0,0,.963,4.752,12.379,12.379,0,0,0,6.525,6.533,11.916,11.916,0,0,0,4.757.957,12.285,12.285,0,0,0,8.717-3.591,12.447,12.447,0,0,0,2.64-3.9,11.892,11.892,0,0,0,.957-4.752,12.161,12.161,0,0,0-.957-4.79,12.38,12.38,0,0,0-2.64-3.93,12.315,12.315,0,0,0-8.717-3.593" transform="translate(91.466 10.324)" fill="#fff"/><path d="M158.909,11.188a2.093,2.093,0,0,1,2.117-2.121,2.1,2.1,0,0,1,2.124,2.121V25.961a22.467,22.467,0,0,1,5.4-4.274,14.842,14.842,0,0,1,6.981-1.95,15.089,15.089,0,0,1,6.256,1.336,17.265,17.265,0,0,1,8.826,8.858,16.143,16.143,0,0,1,.035,12.755,17.136,17.136,0,0,1-3.528,5.231,16.3,16.3,0,0,1-11.731,4.857,16.626,16.626,0,0,1-6.839-1.4,16.222,16.222,0,0,1-5.4-3.867v3.147a2.1,2.1,0,0,1-2.124,2.121,2.093,2.093,0,0,1-2.117-2.121ZM163.15,36.9a11,11,0,0,0,1.092,4.583,12.839,12.839,0,0,0,2.666,3.693,12.614,12.614,0,0,0,3.834,2.5,11.871,11.871,0,0,0,4.647.922,12.149,12.149,0,0,0,4.79-.957,12.334,12.334,0,0,0,3.935-2.631,12.505,12.505,0,0,0,2.631-3.9,11.88,11.88,0,0,0,.957-4.752,12.132,12.132,0,0,0-.957-4.787A12.153,12.153,0,0,0,180.179,25a12.149,12.149,0,0,0-4.79-.957,11.948,11.948,0,0,0-8.48,3.486,13.289,13.289,0,0,0-2.666,3.9,12.454,12.454,0,0,0-1.092,4.926Z" transform="translate(106.419 6.072)" fill="#fff"/></g><g transform="translate(10 21)" opacity="0.8"><path d="M51.985,34.441a2.777,2.777,0,0,0-3.852.769A23.894,23.894,0,0,1,16.59,42.844L18.9,40.718a1.1,1.1,0,0,0-.456-2.034L6.558,34.971c-1.093-.342-1.783.293-1.533,1.411L7.75,48.533a1.1,1.1,0,0,0,1.989.621l2.583-2.381a29.476,29.476,0,0,0,40.432-8.48,2.777,2.777,0,0,0-.769-3.852" transform="translate(88.255 15.094)" fill="#fff"/><path d="M33.5,23.165a3.786,3.786,0,0,0,.6-1.336A4.083,4.083,0,0,0,34.2,20.9a2.943,2.943,0,0,0-.428-1.6c-.065-4-3.073-7.246-6.777-7.248-3.688,0-6.7,3.233-6.78,7.248a2.981,2.981,0,0,0-.423,1.6,3.994,3.994,0,0,0,.111.929,3.728,3.728,0,0,0,.594,1.321,2.766,2.766,0,0,0,.657.674,12.459,12.459,0,0,0,2.05,3.6.1.1,0,0,1,0,.033c0,.024,0,.051,0,.085a4.307,4.307,0,0,1-.8.357c-.731.263-1.743.538-2.819.825l-1.029.278c-1.642.487-3.622,2.079-3.7,6.951a1.457,1.457,0,0,0,0,.165l.009.172.034.7.01,0c.1,1.951,5.479,3.525,12.106,3.525,6.646,0,12.036-1.582,12.108-3.541l.005,0v-.04l.011-.679,0-.2v-.155c-.084-4.827-2.059-6.417-3.719-6.9-.347-.1-.685-.189-1.016-.278-1.072-.288-2.084-.56-2.826-.829a4.025,4.025,0,0,1-.785-.352.382.382,0,0,1,0-.06.406.406,0,0,0,0-.056,12.625,12.625,0,0,0,2.054-3.607,2.809,2.809,0,0,0,.65-.665" transform="translate(90.747 9.565)" fill="#fff"/><path d="M55.608,27.16l-3.47-.478A29.584,29.584,0,0,0,29.563,1.462a2.777,2.777,0,0,0-1.256,5.411,24.015,24.015,0,0,1,18.1,19.018L43.27,25.46c-1.135-.157-1.709.584-1.277,1.645l4.695,11.532a1.1,1.1,0,0,0,2.064.284l7.641-9.832a1.1,1.1,0,0,0-.785-1.93" transform="translate(93.598 6.875)" fill="#fff"/><path d="M6.294,36.451a23.993,23.993,0,0,1-.739-5.926A23.735,23.735,0,0,1,16.37,10.517l.819,3.056a1.1,1.1,0,0,0,2.012.538L28,5.3a1.1,1.1,0,0,0-.54-2.012L15.434.07c-1.107-.3-1.769.367-1.473,1.474l.907,3.379A29.261,29.261,0,0,0,0,30.525a29.62,29.62,0,0,0,.91,7.3,2.778,2.778,0,1,0,5.383-1.371" transform="translate(87 6.524)" fill="#fff"/></g><line x2="40" transform="translate(108.5 210.5)" fill="none" stroke="#fff" stroke-linecap="round" stroke-width="9"/></g></svg>